<svg width="29" height="41" viewBox="0 0 29 41" fill="none" xmlns="http://www.w3.org/2000/svg">
<path d="M23.3554 0.829997L-1.04864e-06 20.5085L23.3554 40.1871C23.9919 40.7217 24.846 41.0139 25.7297 40.9995C26.6134 40.9851 27.4544 40.6652 28.0676 40.1102C28.6808 39.5552 29.016 38.8106 28.9994 38.0402C28.9829 37.2697 28.616 36.5366 27.9794 36.002L9.58118 20.5085L27.9794 4.99802C28.616 4.46343 28.9829 3.73027 28.9994 2.95982C29.016 2.18938 28.6808 1.44476 28.0676 0.889785C27.4544 0.334804 26.6134 0.0149186 25.7297 0.000502881C24.846 -0.0139128 23.9919 0.27832 23.3554 0.812911L23.3554 0.829997Z" fill="white"/>
</svg>
